<?xml version="1.0" encoding="utf-8"?>
<svg version="1.1" xmlns:xlink="http://www.w3.org/1999/xlink" width="28px" height="13px" xmlns="http://www.w3.org/2000/svg">
  <g transform="matrix(1 0 0 1 -930 -218 )">
    <path d="M 3.11111111111111 2.6  L 23.3333333333333 2.6  L 23.3333333333333 10.4  L 3.11111111111111 10.4  L 3.11111111111111 2.6  Z M 24.8888888888889 11.375  L 24.8888888888889 8.45  L 26.4444444444444 8.45  L 26.4444444444444 4.55  L 24.8888888888889 4.55  L 24.8888888888889 1.625  C 24.8888888888889 1.53020833333333  24.8524305555556 1.45234375  24.7795138888889 1.39140625  C 24.7065972222222 1.33046875  24.6134259259259 1.3  24.5 1.3  L 1.94444444444444 1.3  C 1.83101851851852 1.3  1.73784722222222 1.33046875  1.66493055555556 1.39140625  C 1.59201388888889 1.45234375  1.55555555555556 1.53020833333333  1.55555555555556 1.625  L 1.55555555555556 11.375  C 1.55555555555556 11.4697916666667  1.59201388888889 11.54765625  1.66493055555556 11.60859375  C 1.73784722222222 11.66953125  1.83101851851852 11.7  1.94444444444444 11.7  L 24.5 11.7  C 24.6134259259259 11.7  24.7065972222222 11.66953125  24.7795138888889 11.60859375  C 24.8524305555556 11.54765625  24.8888888888889 11.4697916666667  24.8888888888889 11.375  Z M 27.5442708333333 3.630859375  C 27.8480902777778 3.884765625  28 4.19114583333333  28 4.55  L 28 8.45  C 28 8.80885416666666  27.8480902777778 9.115234375  27.5442708333333 9.369140625  C 27.2404513888889 9.623046875  26.8738425925926 9.75  26.4444444444444 9.75  L 26.4444444444444 11.375  C 26.4444444444444 11.821875  26.2540509259259 12.2044270833333  25.8732638888889 12.52265625  C 25.4924768518519 12.8408854166667  25.0347222222222 13  24.5 13  L 1.94444444444444 13  C 1.40972222222222 13  0.951967592592593 12.8408854166667  0.571180555555556 12.52265625  C 0.190393518518519 12.2044270833333  0 11.821875  0 11.375  L 0 1.625  C 0 1.178125  0.190393518518519 0.795572916666666  0.571180555555556 0.47734375  C 0.951967592592593 0.159114583333332  1.40972222222222 0  1.94444444444444 0  L 24.5 0  C 25.0347222222222 0  25.4924768518519 0.159114583333332  25.8732638888889 0.47734375  C 26.2540509259259 0.795572916666666  26.4444444444444 1.178125  26.4444444444444 1.625  L 26.4444444444444 3.25  C 26.8738425925926 3.25  27.2404513888889 3.376953125  27.5442708333333 3.630859375  Z " fill-rule="nonzero" fill="#000000" stroke="none" transform="matrix(1 0 0 1 930 218 )" />
  </g>
</svg>