<?xml version="1.0" encoding="utf-8"?>
<svg version="1.1" xmlns:xlink="http://www.w3.org/1999/xlink" width="26px" height="26px" xmlns="http://www.w3.org/2000/svg">
  <g transform="matrix(1 0 0 1 -374 -845 )">
    <path d="M 387 845  C 394.28 845  400 850.72  400 858  C 400 865.28  394.28 871  387 871  C 379.72 871  374 865.28  374 858  C 374 850.72  379.72 845  387 845  Z " fill-rule="nonzero" fill="#ffffff" stroke="none" />
    <path d="M 387 845.5  C 394 845.5  399.5 851  399.5 858  C 399.5 865  394 870.5  387 870.5  C 380 870.5  374.5 865  374.5 858  C 374.5 851  380 845.5  387 845.5  Z " stroke-width="1" stroke="#797979" fill="none" />
  </g>
</svg>