<?xml version="1.0" encoding="utf-8"?>
<svg version="1.1" xmlns:xlink="http://www.w3.org/1999/xlink" width="23px" height="13px" xmlns="http://www.w3.org/2000/svg">
  <g transform="matrix(1 0 0 1 -556 -218 )">
    <path d="M 3.17020089285714 10.9095052083333  C 3.24720982142857 10.9602864583333  3.28571428571429 11.0251736111111  3.28571428571429 11.1041666666667  L 3.28571428571429 12.7291666666667  C 3.28571428571429 12.8081597222222  3.24720982142857 12.873046875  3.17020089285714 12.923828125  C 3.09319196428571 12.974609375  2.99479166666667 13  2.875 13  L 0.410714285714286 13  C 0.290922619047619 13  0.192522321428571 12.974609375  0.115513392857143 12.923828125  C 0.0385044642857143 12.873046875  0 12.8081597222222  0 12.7291666666667  L 0 11.1041666666667  C 0 11.0251736111111  0.0385044642857143 10.9602864583333  0.115513392857143 10.9095052083333  C 0.192522321428571 10.8587239583333  0.290922619047619 10.8333333333333  0.410714285714286 10.8333333333333  L 2.875 10.8333333333333  C 2.99479166666667 10.8333333333333  3.09319196428571 10.8587239583333  3.17020089285714 10.9095052083333  Z M 8.09877232142857 9.826171875  C 8.17578125 9.876953125  8.21428571428572 9.94184027777778  8.21428571428572 10.0208333333333  L 8.21428571428572 12.7291666666667  C 8.21428571428572 12.8081597222222  8.17578125 12.873046875  8.09877232142857 12.923828125  C 8.02176339285714 12.974609375  7.92336309523809 13  7.80357142857143 13  L 5.33928571428571 13  C 5.21949404761905 13  5.12109375 12.974609375  5.04408482142857 12.923828125  C 4.96707589285714 12.873046875  4.92857142857143 12.8081597222222  4.92857142857143 12.7291666666667  L 4.92857142857143 10.0208333333333  C 4.92857142857143 9.94184027777778  4.96707589285714 9.876953125  5.04408482142857 9.826171875  C 5.12109375 9.775390625  5.21949404761905 9.75  5.33928571428571 9.75  L 7.80357142857143 9.75  C 7.92336309523809 9.75  8.02176339285714 9.775390625  8.09877232142857 9.826171875  Z M 13.02734375 7.65950520833333  C 13.1043526785714 7.71028645833333  13.1428571428571 7.77517361111111  13.1428571428571 7.85416666666667  L 13.1428571428571 12.7291666666667  C 13.1428571428571 12.8081597222222  13.1043526785714 12.873046875  13.02734375 12.923828125  C 12.9503348214286 12.974609375  12.8519345238095 13  12.7321428571429 13  L 10.2678571428571 13  C 10.1480654761905 13  10.0496651785714 12.974609375  9.97265625 12.923828125  C 9.89564732142857 12.873046875  9.85714285714286 12.8081597222222  9.85714285714286 12.7291666666667  L 9.85714285714286 7.85416666666667  C 9.85714285714286 7.77517361111111  9.89564732142857 7.71028645833333  9.97265625 7.65950520833333  C 10.0496651785714 7.60872395833333  10.1480654761905 7.58333333333333  10.2678571428571 7.58333333333333  L 12.7321428571429 7.58333333333333  C 12.8519345238095 7.58333333333333  12.9503348214286 7.60872395833333  13.02734375 7.65950520833333  Z M 17.9559151785714 4.40950520833333  C 18.0329241071429 4.46028645833333  18.0714285714286 4.52517361111111  18.0714285714286 4.60416666666667  L 18.0714285714286 12.7291666666667  C 18.0714285714286 12.8081597222222  18.0329241071429 12.873046875  17.9559151785714 12.923828125  C 17.87890625 12.974609375  17.780505952381 13  17.6607142857143 13  L 15.1964285714286 13  C 15.0766369047619 13  14.9782366071429 12.974609375  14.9012276785714 12.923828125  C 14.82421875 12.873046875  14.7857142857143 12.8081597222222  14.7857142857143 12.7291666666667  L 14.7857142857143 4.60416666666667  C 14.7857142857143 4.52517361111111  14.82421875 4.46028645833333  14.9012276785714 4.40950520833333  C 14.9782366071429 4.35872395833333  15.0766369047619 4.33333333333333  15.1964285714286 4.33333333333333  L 17.6607142857143 4.33333333333333  C 17.780505952381 4.33333333333333  17.87890625 4.35872395833333  17.9559151785714 4.40950520833333  Z M 22.8844866071429 0.076171875  C 22.9614955357143 0.126953125  23 0.191840277777776  23 0.270833333333334  L 23 12.7291666666667  C 23 12.8081597222222  22.9614955357143 12.873046875  22.8844866071429 12.923828125  C 22.8074776785714 12.974609375  22.7090773809524 13  22.5892857142857 13  L 20.125 13  C 20.0052083333333 13  19.9068080357143 12.974609375  19.8297991071429 12.923828125  C 19.7527901785714 12.873046875  19.7142857142857 12.8081597222222  19.7142857142857 12.7291666666667  L 19.7142857142857 0.270833333333334  C 19.7142857142857 0.191840277777776  19.7527901785714 0.126953125  19.8297991071429 0.076171875  C 19.9068080357143 0.025390625  20.0052083333333 0  20.125 0  L 22.5892857142857 0  C 22.7090773809524 0  22.8074776785714 0.025390625  22.8844866071429 0.076171875  Z " fill-rule="nonzero" fill="#000000" stroke="none" transform="matrix(1 0 0 1 556 218 )" />
  </g>
</svg>