<?xml version="1.0" encoding="utf-8"?>
<svg version="1.1" xmlns:xlink="http://www.w3.org/1999/xlink" width="30px" height="30px" xmlns="http://www.w3.org/2000/svg">
  <g transform="matrix(1 0 0 1 -27 -91 )">
    <path d="M 27 91  L 57 91  L 57 121  L 27 121  L 27 91  " fill-rule="nonzero" fill="#cccccc" stroke="none" />
    <path d="M 29 93  L 55 93  L 55 119  L 29 119  L 29 93  " fill-rule="nonzero" fill="#ffffff" stroke="none" />
    <path d="M 44.85 100  C 43.59 100  42.6 99.01  42.6 97.75  C 42.6 96.49  43.59 95.5  44.85 95.5  C 46.11 95.5  47.1 96.49  47.1 97.75  C 47.1 99.01  46.11 100  44.85 100  " fill-rule="nonzero" fill="#cccccc" stroke="none" />
    <path d="M 30 118  L 30 104.8  L 36 98.8  L 44.4 103.6  L 49.2 102.4  L 54 103.6  L 54 118  L 30 118  " fill-rule="nonzero" fill="#169bd5" stroke="none" />
  </g>
</svg>