<?xml version="1.0" encoding="utf-8"?>
<svg version="1.1" xmlns:xlink="http://www.w3.org/1999/xlink" width="14px" height="17px" xmlns="http://www.w3.org/2000/svg">
  <g transform="matrix(1 0 0 1 -419 -169 )">
    <path d="M 8.5859375 10.42578125  C 9.32351762820513 9.53014823717949  9.69230769230769 8.45232371794872  9.69230769230769 7.19230769230769  C 9.69230769230769 5.93229166666667  9.32351762820513 4.8544671474359  8.5859375 3.95883413461538  C 7.84835737179487 3.06320112179487  6.96073717948718 2.61538461538462  5.92307692307692 2.61538461538462  C 4.88541666666667 2.61538461538462  3.99779647435898 3.06320112179487  3.26021634615385 3.95883413461538  C 2.52263621794872 4.8544671474359  2.15384615384615 5.93229166666667  2.15384615384615 7.19230769230769  C 2.15384615384615 8.45232371794872  2.52263621794872 9.53014823717949  3.26021634615385 10.42578125  C 3.99779647435898 11.3214142628205  4.88541666666667 11.7692307692308  5.92307692307692 11.7692307692308  C 6.96073717948718 11.7692307692308  7.84835737179487 11.3214142628205  8.5859375 10.42578125  Z M 13.6887019230769 14.7728365384615  C 13.896233974359 15.0248397435897  14 15.3313301282051  14 15.6923076923077  C 14 16.0464743589744  13.8934294871795 16.3529647435897  13.6802884615385 16.6117788461538  C 13.4671474358974 16.8705929487179  13.2147435897436 17  12.9230769230769 17  C 12.6201923076923 17  12.3677884615385 16.8705929487179  12.1658653846154 16.6117788461538  L 9.28004807692308 13.1177884615385  C 8.27604166666667 13.9623397435897  7.15705128205128 14.3846153846154  5.92307692307692 14.3846153846154  C 5.12099358974359 14.3846153846154  4.35396634615385 14.1956129807692  3.62199519230769 13.8176081730769  C 2.89002403846154 13.4396033653846  2.25901442307692 12.9287860576923  1.72896634615385 12.28515625  C 1.19891826923077 11.6415264423077  0.778245192307693 10.8753004807692  0.466947115384615 9.98647836538462  C 0.155649038461538 9.09765625  0 8.16626602564102  0 7.19230769230769  C 0 6.21834935897436  0.155649038461538 5.28695913461538  0.466947115384615 4.39813701923077  C 0.778245192307693 3.50931490384615  1.19891826923077 2.74308894230769  1.72896634615385 2.09945913461538  C 2.25901442307692 1.45582932692308  2.89002403846154 0.945012019230769  3.62199519230769 0.567007211538462  C 4.35396634615385 0.189002403846153  5.12099358974359 0  5.92307692307692 0  C 6.72516025641026 0  7.4921875 0.189002403846153  8.22415865384615 0.567007211538462  C 8.95612980769231 0.945012019230769  9.58713942307692 1.45582932692308  10.1171875 2.09945913461538  C 10.6472355769231 2.74308894230769  11.0679086538462 3.50931490384615  11.3792067307692 4.39813701923077  C 11.6905048076923 5.28695913461538  11.8461538461538 6.21834935897436  11.8461538461538 7.19230769230769  C 11.8461538461538 8.69070512820513  11.4983974358974 10.0494791666667  10.8028846153846 11.2686298076923  L 13.6887019230769 14.7728365384615  Z " fill-rule="nonzero" fill="#7f7f7f" stroke="none" transform="matrix(1 0 0 1 419 169 )" />
  </g>
</svg>