<?xml version="1.0" encoding="utf-8"?>
<svg version="1.1" xmlns:xlink="http://www.w3.org/1999/xlink" width="43px" height="43px" xmlns="http://www.w3.org/2000/svg">
  <defs>
    <mask fill="white" id="clip188">
      <path d="M 39 48  C 27.9 48  19 39.1  19 28  L 19 25  C 19 13.9  27.9 5  39 5  L 42 5  C 53.1 5  62 13.9  62 25  L 62 28  C 62 39.1  53.1 48  42 48  " fill-rule="evenodd" />
    </mask>
  </defs>
  <g transform="matrix(1 0 0 1 -19 -5 )">
    <path d="M 19 5  L 62 5  L 62 48  L 19 48  L 19 5  " fill-rule="nonzero" fill="#cccccc" stroke="none" mask="url(#clip188)" />
    <path d="M 22 8  L 59 8  L 59 45  L 22 45  L 22 8  " fill-rule="nonzero" fill="#ffffff" stroke="none" mask="url(#clip188)" />
    <path d="M 44.585 17.9  C 42.779 17.9  41.36 16.481  41.36 14.675  C 41.36 12.869  42.779 11.45  44.585 11.45  C 46.391 11.45  47.81 12.869  47.81 14.675  C 47.81 16.481  46.391 17.9  44.585 17.9  " fill-rule="nonzero" fill="#cccccc" stroke="none" mask="url(#clip188)" />
    <path d="M 23 44  L 23 24.75  L 31.75 16  L 44 23  L 51 21.25  L 58 23  L 58 44  L 23 44  " fill-rule="nonzero" fill="#169bd5" stroke="none" mask="url(#clip188)" />
  </g>
</svg>