<?xml version="1.0" encoding="utf-8"?>
<svg version="1.1" xmlns:xlink="http://www.w3.org/1999/xlink" width="3px" height="3px" xmlns="http://www.w3.org/2000/svg">
  <g transform="matrix(1 0 0 1 -399 -343 )">
    <path d="M 400.5 343  C 401.34 343  402 343.66  402 344.5  C 402 345.34  401.34 346  400.5 346  C 399.66 346  399 345.34  399 344.5  C 399 343.66  399.66 343  400.5 343  Z " fill-rule="nonzero" fill="#000000" stroke="none" />
    <path d="M 400.5 343.5  C 401.06 343.5  401.5 343.94  401.5 344.5  C 401.5 345.06  401.06 345.5  400.5 345.5  C 399.94 345.5  399.5 345.06  399.5 344.5  C 399.5 343.94  399.94 343.5  400.5 343.5  Z " stroke-width="1" stroke="#000000" fill="none" />
  </g>
</svg>