<?xml version="1.0" encoding="utf-8"?>
<svg version="1.1" xmlns:xlink="http://www.w3.org/1999/xlink" width="49px" height="50px" xmlns="http://www.w3.org/2000/svg">
  <defs>
    <mask fill="white" id="clip189">
      <path d="M 22 423  C 19.78 423  18 421.22  18 419  L 18 377  C 18 374.78  19.78 373  22 373  L 63 373  C 65.22 373  67 374.78  67 377  L 67 419  C 67 421.22  65.22 423  63 423  " fill-rule="evenodd" />
    </mask>
  </defs>
  <g transform="matrix(1 0 0 1 -18 -373 )">
    <path d="M 18 373  L 67 373  L 67 423  L 18 423  L 18 373  " fill-rule="nonzero" fill="#cccccc" stroke="none" mask="url(#clip189)" />
    <path d="M 21 376  L 64 376  L 64 420  L 21 420  L 21 376  " fill-rule="nonzero" fill="#ffffff" stroke="none" mask="url(#clip189)" />
    <path d="M 47.155 387.85  C 45.097 387.85  43.48 386.233  43.48 384.175  C 43.48 382.117  45.097 380.5  47.155 380.5  C 49.213 380.5  50.83 382.117  50.83 384.175  C 50.83 386.233  49.213 387.85  47.155 387.85  " fill-rule="nonzero" fill="#cccccc" stroke="none" mask="url(#clip189)" />
    <path d="M 22 419  L 22 395.9  L 32.25 385.4  L 46.6 393.8  L 54.8 391.7  L 63 393.8  L 63 419  L 22 419  " fill-rule="nonzero" fill="#169bd5" stroke="none" mask="url(#clip189)" />
  </g>
</svg>