<?xml version="1.0" encoding="utf-8"?>
<svg version="1.1" xmlns:xlink="http://www.w3.org/1999/xlink" width="11px" height="10px" xmlns="http://www.w3.org/2000/svg">
  <g transform="matrix(1 0 0 1 -814 -466 )">
    <path d="M 5.77008928571425 9.8828125  C 5.69642857142863 9.9609375  5.60639880952379 10  5.5 10  C 5.39360119047621 10  5.30357142857137 9.9609375  5.22991071428575 9.8828125  L 2.89457021044972 7.49326197475597  L 1.39955357142863 5.96354166666664  C 1.35863095238091 5.92881944444443  1.30236235119046 5.87239583333336  1.23074776785712 5.79427083333336  C 1.15913318452379 5.71614583333336  1.04557291666667 5.57400173611114  0.890066964285754 5.36783854166664  C 0.734561011904702 5.16167534722221  0.595424107142877 4.95008680555557  0.47265625 4.73307291666664  C 0.349888392857123 4.51605902777779  0.240420386904702 4.25347222222221  0.144252232142877 3.9453125  C 0.0480840773809127 3.63715277777779  0 3.33767361111114  0 3.046875  C 0 2.09201388888886  0.259858630952421 1.34548611111114  0.779575892857123 0.807291666666643  C 1.29929315476196 0.269097222222214  2.01748511904758 0  2.93415178571425 0  C 3.18787202380954 0  3.44670758928575 0.0466579861111427  3.71065848214288 0.139973958333357  C 3.974609375 0.233289930555571  4.22014508928575 0.359157986111143  4.447265625 0.517578125  C 4.67438616071425 0.675998263888857  4.86979166666667 0.824652777777786  5.03348214285712 0.963541666666643  C 5.19717261904758 1.10243055555557  5.35267857142863 1.25  5.5 1.40625  C 5.64732142857137 1.25  5.80282738095242 1.10243055555557  5.96651785714288 0.963541666666643  C 6.13020833333333 0.824652777777786  6.32561383928575 0.675998263888857  6.552734375 0.517578125  C 6.77985491071425 0.359157986111143  7.025390625 0.233289930555571  7.28934151785712 0.139973958333357  C 7.55329241071425 0.0466579861111427  7.81212797619046 0  8.06584821428575 0  C 8.98251488095242 0  9.70070684523803 0.269097222222214  10.2204241071429 0.807291666666643  C 10.7401413690476 1.34548611111114  11 2.09201388888886  11 3.046875  C 11 4.00607638888886  10.5314360119047 4.98263888888886  9.59430803571425 5.9765625  L 5.77008928571425 9.8828125  Z " fill-rule="nonzero" fill="#000000" stroke="none" transform="matrix(1 0 0 1 814 466 )" />
  </g>
</svg>