<?xml version="1.0" encoding="utf-8"?>
<svg version="1.1" xmlns:xlink="http://www.w3.org/1999/xlink" width="10px" height="12px" xmlns="http://www.w3.org/2000/svg">
  <g transform="matrix(1 0 0 1 -303 -326 )">
    <path d="M 9.79166666666667 0.857142857142857  L 9.16666666666667 0.857142857142857  C 9.16666666666667 2.02232142857143  8.935546875 3.05245535714286  8.47330729166667 3.94754464285714  C 8.01106770833333 4.84263392857143  7.43272569444445 5.52678571428571  6.73828125 6  C 7.43272569444445 6.47321428571428  8.01106770833333 7.15736607142857  8.47330729166667 8.05245535714286  C 8.935546875 8.94754464285714  9.16666666666667 9.97767857142857  9.16666666666667 11.1428571428571  L 9.79166666666667 11.1428571428571  C 9.85243055555556 11.1428571428571  9.90234375 11.1629464285714  9.94140625 11.203125  C 9.98046875 11.2433035714286  10 11.2946428571429  10 11.3571428571429  L 10 11.7857142857143  C 10 11.8482142857143  9.98046875 11.8995535714286  9.94140625 11.9397321428571  C 9.90234375 11.9799107142857  9.85243055555556 12  9.79166666666667 12  L 0.208333333333333 12  C 0.147569444444444 12  0.09765625 11.9799107142857  0.05859375 11.9397321428571  C 0.01953125 11.8995535714286  0 11.8482142857143  0 11.7857142857143  L 0 11.3571428571429  C 0 11.2946428571429  0.01953125 11.2433035714286  0.05859375 11.203125  C 0.09765625 11.1629464285714  0.147569444444444 11.1428571428571  0.208333333333333 11.1428571428571  L 0.833333333333333 11.1428571428571  C 0.833333333333333 9.97767857142857  1.064453125 8.94754464285714  1.52669270833333 8.05245535714286  C 1.98893229166667 7.15736607142857  2.56727430555556 6.47321428571428  3.26171875 6  C 2.56727430555556 5.52678571428571  1.98893229166667 4.84263392857143  1.52669270833333 3.94754464285714  C 1.064453125 3.05245535714286  0.833333333333333 2.02232142857143  0.833333333333333 0.857142857142857  L 0.208333333333333 0.857142857142857  C 0.147569444444444 0.857142857142857  0.09765625 0.837053571428572  0.05859375 0.796875  C 0.01953125 0.756696428571428  0 0.705357142857142  0 0.642857142857143  L 0 0.214285714285715  C 0 0.151785714285713  0.01953125 0.100446428571428  0.05859375 0.0602678571428568  C 0.09765625 0.0200892857142851  0.147569444444444 0  0.208333333333333 0  L 9.79166666666667 0  C 9.85243055555556 0  9.90234375 0.0200892857142851  9.94140625 0.0602678571428568  C 9.98046875 0.100446428571428  10 0.151785714285713  10 0.214285714285715  L 10 0.642857142857143  C 10 0.705357142857142  9.98046875 0.756696428571428  9.94140625 0.796875  C 9.90234375 0.837053571428572  9.85243055555556 0.857142857142857  9.79166666666667 0.857142857142857  Z M 7.77994791666667 3.42857142857143  C 8.14887152777778 2.63392857142857  8.33333333333333 1.77678571428571  8.33333333333333 0.857142857142857  L 1.66666666666667 0.857142857142857  C 1.66666666666667 1.77678571428571  1.85112847222222 2.63392857142857  2.22005208333333 3.42857142857143  L 7.77994791666667 3.42857142857143  Z M 2.03776041666667 9  L 7.96223958333333 9  C 7.72786458333333 8.37053571428571  7.412109375 7.83147321428571  7.01497395833333 7.3828125  C 6.61783854166667 6.93415178571429  6.19574652777778 6.61607142857143  5.74869791666667 6.42857142857143  L 4.25130208333333 6.42857142857143  C 3.80425347222222 6.61607142857143  3.38216145833333 6.93415178571429  2.98502604166667 7.3828125  C 2.587890625 7.83147321428571  2.27213541666667 8.37053571428571  2.03776041666667 9  Z " fill-rule="nonzero" fill="#000000" stroke="none" transform="matrix(1 0 0 1 303 326 )" />
  </g>
</svg>