<?xml version="1.0" encoding="utf-8"?>
<svg version="1.1" xmlns:xlink="http://www.w3.org/1999/xlink" width="10px" height="11px" xmlns="http://www.w3.org/2000/svg">
  <g transform="matrix(1 0 0 1 -815 -381 )">
    <path d="M 9.81770833333333 0.185096153846154  C 9.93923611111111 0.308493589743589  10 0.458333333333333  10 0.634615384615385  L 10 8.03846153846154  C 10 8.2588141025641  9.92621527777778 8.45492788461539  9.77864583333333 8.62680288461539  C 9.63107638888889 8.79867788461539  9.44444444444444 8.93199118589744  9.21875 9.02674278846154  C 8.99305555555556 9.12149439102564  8.76844618055556 9.19200721153846  8.544921875 9.23828125  C 8.32139756944444 9.28455528846154  8.11197916666667 9.30769230769231  7.91666666666667 9.30769230769231  C 7.72135416666667 9.30769230769231  7.51193576388889 9.28455528846154  7.28841145833333 9.23828125  C 7.06488715277778 9.19200721153846  6.84027777777778 9.12149439102564  6.61458333333333 9.02674278846154  C 6.38888888888889 8.93199118589744  6.20225694444445 8.79867788461539  6.0546875 8.62680288461539  C 5.90711805555556 8.45492788461539  5.83333333333333 8.2588141025641  5.83333333333333 8.03846153846154  C 5.83333333333333 7.81810897435897  5.90711805555556 7.62199519230769  6.0546875 7.45012019230769  C 6.20225694444445 7.27824519230769  6.38888888888889 7.14493189102564  6.61458333333333 7.05018028846154  C 6.84027777777778 6.95542868589744  7.06488715277778 6.88491586538462  7.28841145833333 6.83864182692308  C 7.51193576388889 6.79236778846154  7.72135416666667 6.76923076923077  7.91666666666667 6.76923076923077  C 8.37239583333333 6.76923076923077  8.7890625 6.85516826923077  9.16666666666667 7.02704326923077  L 9.16666666666667 3.47716346153846  L 4.16666666666667 5.04387019230769  L 4.16666666666667 9.73076923076923  C 4.16666666666667 9.9511217948718  4.09288194444444 10.1472355769231  3.9453125 10.3191105769231  C 3.79774305555556 10.4909855769231  3.61111111111111 10.6242988782051  3.38541666666667 10.7190504807692  C 3.15972222222222 10.8138020833333  2.93511284722222 10.8843149038462  2.71158854166667 10.9305889423077  C 2.48806423611111 10.9768629807692  2.27864583333333 11  2.08333333333333 11  C 1.88802083333333 11  1.67860243055556 10.9768629807692  1.455078125 10.9305889423077  C 1.23155381944444 10.8843149038462  1.00694444444444 10.8138020833333  0.78125 10.7190504807692  C 0.555555555555556 10.6242988782051  0.368923611111111 10.4909855769231  0.221354166666667 10.3191105769231  C 0.0737847222222222 10.1472355769231  0 9.9511217948718  0 9.73076923076923  C 0 9.51041666666667  0.0737847222222222 9.31430288461539  0.221354166666667 9.14242788461539  C 0.368923611111111 8.97055288461539  0.555555555555556 8.83723958333333  0.78125 8.74248798076923  C 1.00694444444444 8.64773637820513  1.23155381944444 8.57722355769231  1.455078125 8.53094951923077  C 1.67860243055556 8.48467548076923  1.88802083333333 8.46153846153846  2.08333333333333 8.46153846153846  C 2.5390625 8.46153846153846  2.95572916666667 8.54747596153846  3.33333333333333 8.71935096153846  L 3.33333333333333 2.32692307692308  C 3.33333333333333 2.19030448717949  3.37456597222222 2.06580528846154  3.45703125 1.95342548076923  C 3.53949652777778 1.84104567307692  3.64583333333333 1.76282051282051  3.77604166666667 1.71875  L 9.19270833333333 0.0264423076923076  C 9.24479166666667 0.00881410256410253  9.30555555555556 0  9.375 0  C 9.54861111111111 0  9.69618055555556 0.0616987179487177  9.81770833333333 0.185096153846154  Z " fill-rule="nonzero" fill="#000000" stroke="none" transform="matrix(1 0 0 1 815 381 )" />
  </g>
</svg>