<?xml version="1.0" encoding="utf-8"?>
<svg version="1.1" xmlns:xlink="http://www.w3.org/1999/xlink" width="182px" height="168px" xmlns="http://www.w3.org/2000/svg">
  <g transform="matrix(1 0 0 1 -18 -94 )">
    <path d="M 18 94  L 200 94  L 200 262  L 18 262  L 18 94  " fill-rule="nonzero" fill="#cccccc" stroke="none" />
    <path d="M 30 106  L 188 106  L 188 250  L 30 250  L 30 106  " fill-rule="nonzero" fill="#ffffff" stroke="none" />
    <path d="M 125.24 144.4  C 118.184 144.4  112.64 138.856  112.64 131.8  C 112.64 124.744  118.184 119.2  125.24 119.2  C 132.296 119.2  137.84 124.744  137.84 131.8  C 137.84 138.856  132.296 144.4  125.24 144.4  " fill-rule="nonzero" fill="#cccccc" stroke="none" />
    <path d="M 34 246  L 34 171.2  L 71.5 137.2  L 124 170.676923076923  L 154 157.6  L 184 170.676923076923  L 184 246  L 34 246  " fill-rule="nonzero" fill="#169bd5" stroke="none" />
  </g>
</svg>