<?xml version="1.0" encoding="utf-8"?>
<svg version="1.1" xmlns:xlink="http://www.w3.org/1999/xlink" width="2px" height="2px" xmlns="http://www.w3.org/2000/svg">
  <g transform="matrix(1 0 0 1 -189 -313 )">
    <path d="M 190 313  C 190.56 313  191 313.44  191 314  C 191 314.56  190.56 315  190 315  C 189.44 315  189 314.56  189 314  C 189 313.44  189.44 313  190 313  Z " fill-rule="nonzero" fill="#7f7f7f" stroke="none" />
    <path d="M 190 313.5  C 190.28 313.5  190.5 313.72  190.5 314  C 190.5 314.28  190.28 314.5  190 314.5  C 189.72 314.5  189.5 314.28  189.5 314  C 189.5 313.72  189.72 313.5  190 313.5  Z " stroke-width="1" stroke="#7f7f7f" fill="none" />
  </g>
</svg>