<?xml version="1.0" encoding="utf-8"?>
<svg version="1.1" xmlns:xlink="http://www.w3.org/1999/xlink" width="40px" height="40px" xmlns="http://www.w3.org/2000/svg">
  <g transform="matrix(1 0 0 1 -18 -8 )">
    <path d="M 38 8  C 49.2 8  58 16.8  58 28  C 58 39.2  49.2 48  38 48  C 26.8 48  18 39.2  18 28  C 18 16.8  26.8 8  38 8  Z " fill-rule="nonzero" fill="#773026" stroke="none" />
    <path d="M 38 8.5  C 48.92 8.5  57.5 17.08  57.5 28  C 57.5 38.92  48.92 47.5  38 47.5  C 27.08 47.5  18.5 38.92  18.5 28  C 18.5 17.08  27.08 8.5  38 8.5  Z " stroke-width="1" stroke="#773026" fill="none" />
  </g>
</svg>