<?xml version="1.0" encoding="utf-8"?>
<svg version="1.1" xmlns:xlink="http://www.w3.org/1999/xlink" width="62px" height="23px" xmlns="http://www.w3.org/2000/svg">
  <g transform="matrix(1 0 0 1 -321 -132 )">
    <path d="M 322 143.5  A 10.5 10.5 0 0 1 332.5 133 L 371.5 133  A 10.5 10.5 0 0 1 382 143.5 A 10.5 10.5 0 0 1 371.5 154 L 332.5 154  A 10.5 10.5 0 0 1 322 143.5 Z " fill-rule="nonzero" fill="#fd2f48" stroke="none" fill-opacity="0.996078431372549" />
    <path d="M 321.5 143.5  A 11 11 0 0 1 332.5 132.5 L 371.5 132.5  A 11 11 0 0 1 382.5 143.5 A 11 11 0 0 1 371.5 154.5 L 332.5 154.5  A 11 11 0 0 1 321.5 143.5 Z " stroke-width="1" stroke="#fd2f48" fill="none" stroke-opacity="0.996078431372549" />
  </g>
</svg>