<?xml version="1.0" encoding="utf-8"?>
<svg version="1.1" xmlns:xlink="http://www.w3.org/1999/xlink" width="384px" height="194px" xmlns="http://www.w3.org/2000/svg">
  <defs>
    <mask fill="white" id="clip72">
      <path d="M 27 203  C 21.45 203  17 198.55  17 193  L 17 19  C 17 13.45  21.45 9  27 9  L 391 9  C 396.55 9  401 13.45  401 19  L 401 193  C 401 198.55  396.55 203  391 203  " fill-rule="evenodd" />
    </mask>
  </defs>
  <g transform="matrix(1 0 0 1 -17 -9 )">
    <path d="M 17 9  L 401 9  L 401 203  L 17 203  L 17 9  " fill-rule="nonzero" fill="#cccccc" stroke="none" mask="url(#clip72)" />
    <path d="M 31 23  L 387 23  L 387 189  L 31 189  L 31 23  " fill-rule="nonzero" fill="#ffffff" stroke="none" mask="url(#clip72)" />
    <path d="M 231.23 67.2  C 223.082 67.2  216.68 60.798  216.68 52.65  C 216.68 44.502  223.082 38.1  231.23 38.1  C 239.378 38.1  245.78 44.502  245.78 52.65  C 245.78 60.798  239.378 67.2  231.23 67.2  " fill-rule="nonzero" fill="#cccccc" stroke="none" mask="url(#clip72)" />
    <path d="M 36 184  L 36 98.2  L 122.5 59.2  L 243.6 136.7125  L 312.8 82.6  L 382 136.7125  L 382 184  L 36 184  " fill-rule="nonzero" fill="#169bd5" stroke="none" mask="url(#clip72)" />
  </g>
</svg>