<?xml version="1.0" encoding="utf-8"?>
<svg version="1.1" xmlns:xlink="http://www.w3.org/1999/xlink" width="43px" height="43px" xmlns="http://www.w3.org/2000/svg">
  <g transform="matrix(1 0 0 1 -56 -779 )">
    <path d="M 77.5 779  C 89.54 779  99 788.46  99 800.5  C 99 812.54  89.54 822  77.5 822  C 65.46 822  56 812.54  56 800.5  C 56 788.46  65.46 779  77.5 779  Z " fill-rule="nonzero" fill="#f94040" stroke="none" />
    <path d="M 77.5 779.5  C 89.26 779.5  98.5 788.74  98.5 800.5  C 98.5 812.26  89.26 821.5  77.5 821.5  C 65.74 821.5  56.5 812.26  56.5 800.5  C 56.5 788.74  65.74 779.5  77.5 779.5  Z " stroke-width="1" stroke="#fa4542" fill="none" />
  </g>
</svg>