<?xml version="1.0" encoding="utf-8"?>
<svg version="1.1" xmlns:xlink="http://www.w3.org/1999/xlink" width="27px" height="27px" xmlns="http://www.w3.org/2000/svg">
  <defs>
    <mask fill="white" id="clip242">
      <path d="M 384.5 192  C 377.0075 192  371 185.9925  371 178.5  L 371 178.5  C 371 171.0075  377.0075 165  384.5 165  L 384.5 165  C 391.9925 165  398 171.0075  398 178.5  L 398 178.5  C 398 185.9925  391.9925 192  384.5 192  " fill-rule="evenodd" />
    </mask>
  </defs>
  <g transform="matrix(1 0 0 1 -371 -165 )">
    <path d="M 371 165  L 398 165  L 398 192  L 371 192  L 371 165  " fill-rule="nonzero" fill="#cccccc" stroke="none" mask="url(#clip242)" />
    <path d="M 373 167  L 396 167  L 396 190  L 373 190  L 373 167  " fill-rule="nonzero" fill="#ffffff" stroke="none" mask="url(#clip242)" />
    <path d="M 387.065 173.1  C 385.931 173.1  385.04 172.209  385.04 171.075  C 385.04 169.941  385.931 169.05  387.065 169.05  C 388.199 169.05  389.09 169.941  389.09 171.075  C 389.09 172.209  388.199 173.1  387.065 173.1  " fill-rule="nonzero" fill="#cccccc" stroke="none" mask="url(#clip242)" />
    <path d="M 374 190  L 374 177.9  L 379.5 172.4  L 387.2 176.8  L 391.6 175.7  L 396 176.8  L 396 190  L 374 190  " fill-rule="nonzero" fill="#169bd5" stroke="none" mask="url(#clip242)" />
  </g>
</svg>