<?xml version="1.0" encoding="utf-8"?>
<svg version="1.1" xmlns:xlink="http://www.w3.org/1999/xlink" width="31px" height="31px" xmlns="http://www.w3.org/2000/svg">
  <g transform="matrix(1 0 0 1 -369 -163 )">
    <path d="M 384.5 163  C 393.18 163  400 169.82  400 178.5  C 400 187.18  393.18 194  384.5 194  C 375.82 194  369 187.18  369 178.5  C 369 169.82  375.82 163  384.5 163  Z " fill-rule="nonzero" fill="#ffffff" stroke="none" fill-opacity="0" />
    <path d="M 384.5 163.5  C 392.9 163.5  399.5 170.1  399.5 178.5  C 399.5 186.9  392.9 193.5  384.5 193.5  C 376.1 193.5  369.5 186.9  369.5 178.5  C 369.5 170.1  376.1 163.5  384.5 163.5  Z " stroke-width="1" stroke="#a30014" fill="none" />
  </g>
</svg>