<?xml version="1.0" encoding="utf-8"?>
<svg version="1.1" xmlns:xlink="http://www.w3.org/1999/xlink" width="7px" height="7px" xmlns="http://www.w3.org/2000/svg">
  <g transform="matrix(1 0 0 1 -419 -175 )">
    <path d="M 422.5 175  C 424.46 175  426 176.54  426 178.5  C 426 180.46  424.46 182  422.5 182  C 420.54 182  419 180.46  419 178.5  C 419 176.54  420.54 175  422.5 175  Z " fill-rule="nonzero" fill="#ffffff" stroke="none" fill-opacity="0" />
    <path d="M 422.5 175.5  C 424.18 175.5  425.5 176.82  425.5 178.5  C 425.5 180.18  424.18 181.5  422.5 181.5  C 420.82 181.5  419.5 180.18  419.5 178.5  C 419.5 176.82  420.82 175.5  422.5 175.5  Z " stroke-width="1" stroke="#797979" fill="none" />
  </g>
</svg>