<?xml version="1.0" encoding="utf-8"?>
<svg version="1.1" xmlns:xlink="http://www.w3.org/1999/xlink" width="3px" height="3px" xmlns="http://www.w3.org/2000/svg">
  <g transform="matrix(1 0 0 1 -362 -548 )">
    <path d="M 363.5 548  C 364.34 548  365 548.66  365 549.5  C 365 550.34  364.34 551  363.5 551  C 362.66 551  362 550.34  362 549.5  C 362 548.66  362.66 548  363.5 548  Z " fill-rule="nonzero" fill="#555555" stroke="none" />
    <path d="M 363.5 548.5  C 364.06 548.5  364.5 548.94  364.5 549.5  C 364.5 550.06  364.06 550.5  363.5 550.5  C 362.94 550.5  362.5 550.06  362.5 549.5  C 362.5 548.94  362.94 548.5  363.5 548.5  Z " stroke-width="1" stroke="#555555" fill="none" />
  </g>
</svg>