<?xml version="1.0" encoding="utf-8"?>
<svg version="1.1" xmlns:xlink="http://www.w3.org/1999/xlink" width="6px" height="6px" xmlns="http://www.w3.org/2000/svg">
  <g transform="matrix(1 0 0 1 -204 -18 )">
    <path d="M 207 18  C 208.68 18  210 19.32  210 21  C 210 22.68  208.68 24  207 24  C 205.32 24  204 22.68  204 21  C 204 19.32  205.32 18  207 18  Z " fill-rule="nonzero" fill="#7f7f7f" stroke="none" />
    <path d="M 207 18.5  C 208.4 18.5  209.5 19.6  209.5 21  C 209.5 22.4  208.4 23.5  207 23.5  C 205.6 23.5  204.5 22.4  204.5 21  C 204.5 19.6  205.6 18.5  207 18.5  Z " stroke-width="1" stroke="#797979" fill="none" />
  </g>
</svg>