<?xml version="1.0" encoding="utf-8"?>
<svg version="1.1" xmlns:xlink="http://www.w3.org/1999/xlink" width="20px" height="20px" xmlns="http://www.w3.org/2000/svg">
  <g transform="matrix(1 0 0 1 -197 -10 )">
    <path d="M 207 10  C 212.6 10  217 14.4  217 20  C 217 25.6  212.6 30  207 30  C 201.4 30  197 25.6  197 20  C 197 14.4  201.4 10  207 10  Z " fill-rule="nonzero" fill="#ffffff" stroke="none" />
    <path d="M 207 10.5  C 212.32 10.5  216.5 14.68  216.5 20  C 216.5 25.32  212.32 29.5  207 29.5  C 201.68 29.5  197.5 25.32  197.5 20  C 197.5 14.68  201.68 10.5  207 10.5  Z " stroke-width="1" stroke="#797979" fill="none" />
  </g>
</svg>