<?xml version="1.0" encoding="utf-8"?>
<svg version="1.1" xmlns:xlink="http://www.w3.org/1999/xlink" width="25px" height="23px" xmlns="http://www.w3.org/2000/svg">
  <defs>
    <mask fill="white" id="clip104">
      <path d="M 13.1138392857143 22.73046875  C 12.9464285714286 22.91015625  12.7418154761905 23  12.5 23  C 12.2581845238095 23  12.0535714285714 22.91015625  11.8861607142857 22.73046875  L 3.18080357142857 13.7161458333333  C 3.08779761904762 13.6362847222222  2.95991443452381 13.5065104166667  2.79715401785714 13.3268229166667  C 2.63439360119048 13.1471354166667  2.37630208333333 12.8202039930556  2.02287946428571 12.3460286458333  C 1.6694568452381 11.8718532986111  1.35323660714286 11.3851996527778  1.07421875 10.8860677083333  C 0.795200892857143 10.3869357638889  0.546409970238095 9.78298611111111  0.327845982142857 9.07421875  C 0.109281994047619 8.36545138888889  0 7.67664930555555  0 7.0078125  C 0 4.81163194444444  0.590587797619048 3.09461805555555  1.77176339285714 1.85677083333333  C 2.95293898809524 0.618923611111111  4.58519345238095 0  6.66852678571429 0  C 7.24516369047619 0  7.83342633928571 0.107313368055554  8.43331473214286 0.321940104166668  C 9.033203125 0.536566840277776  9.59123883928571 0.826063368055554  10.107421875 1.1904296875  C 10.6236049107143 1.55479600694444  11.0677083333333 1.89670138888889  11.4397321428571 2.21614583333333  C 11.811755952381 2.53559027777778  12.1651785714286 2.875  12.5 3.234375  C 12.8348214285714 2.875  13.188244047619 2.53559027777778  13.5602678571429 2.21614583333333  C 13.9322916666667 1.89670138888889  14.3763950892857 1.55479600694444  14.892578125 1.1904296875  C 15.4087611607143 0.826063368055554  15.966796875 0.536566840277776  16.5666852678571 0.321940104166668  C 17.1665736607143 0.107313368055554  17.7548363095238 0  18.3314732142857 0  C 20.4148065476191 0  22.0470610119048 0.618923611111111  23.2282366071429 1.85677083333333  C 24.409412202381 3.09461805555555  25 4.81163194444444  25 7.0078125  C 25 9.21397569444444  23.9350818452381 11.4600694444444  21.8052455357143 13.74609375  L 13.1138392857143 22.73046875  Z " fill-rule="evenodd" />
    </mask>
  </defs>
  <g transform="matrix(1 0 0 1 -44 -544 )">
    <path d="M 13.1138392857143 22.73046875  C 12.9464285714286 22.91015625  12.7418154761905 23  12.5 23  C 12.2581845238095 23  12.0535714285714 22.91015625  11.8861607142857 22.73046875  L 3.18080357142857 13.7161458333333  C 3.08779761904762 13.6362847222222  2.95991443452381 13.5065104166667  2.79715401785714 13.3268229166667  C 2.63439360119048 13.1471354166667  2.37630208333333 12.8202039930556  2.02287946428571 12.3460286458333  C 1.6694568452381 11.8718532986111  1.35323660714286 11.3851996527778  1.07421875 10.8860677083333  C 0.795200892857143 10.3869357638889  0.546409970238095 9.78298611111111  0.327845982142857 9.07421875  C 0.109281994047619 8.36545138888889  0 7.67664930555555  0 7.0078125  C 0 4.81163194444444  0.590587797619048 3.09461805555555  1.77176339285714 1.85677083333333  C 2.95293898809524 0.618923611111111  4.58519345238095 0  6.66852678571429 0  C 7.24516369047619 0  7.83342633928571 0.107313368055554  8.43331473214286 0.321940104166668  C 9.033203125 0.536566840277776  9.59123883928571 0.826063368055554  10.107421875 1.1904296875  C 10.6236049107143 1.55479600694444  11.0677083333333 1.89670138888889  11.4397321428571 2.21614583333333  C 11.811755952381 2.53559027777778  12.1651785714286 2.875  12.5 3.234375  C 12.8348214285714 2.875  13.188244047619 2.53559027777778  13.5602678571429 2.21614583333333  C 13.9322916666667 1.89670138888889  14.3763950892857 1.55479600694444  14.892578125 1.1904296875  C 15.4087611607143 0.826063368055554  15.966796875 0.536566840277776  16.5666852678571 0.321940104166668  C 17.1665736607143 0.107313368055554  17.7548363095238 0  18.3314732142857 0  C 20.4148065476191 0  22.0470610119048 0.618923611111111  23.2282366071429 1.85677083333333  C 24.409412202381 3.09461805555555  25 4.81163194444444  25 7.0078125  C 25 9.21397569444444  23.9350818452381 11.4600694444444  21.8052455357143 13.74609375  L 13.1138392857143 22.73046875  Z " fill-rule="nonzero" fill="#ffffff" stroke="none" transform="matrix(1 0 0 1 44 544 )" />
    <path d="M 13.1138392857143 22.73046875  C 12.9464285714286 22.91015625  12.7418154761905 23  12.5 23  C 12.2581845238095 23  12.0535714285714 22.91015625  11.8861607142857 22.73046875  L 3.18080357142857 13.7161458333333  C 3.08779761904762 13.6362847222222  2.95991443452381 13.5065104166667  2.79715401785714 13.3268229166667  C 2.63439360119048 13.1471354166667  2.37630208333333 12.8202039930556  2.02287946428571 12.3460286458333  C 1.6694568452381 11.8718532986111  1.35323660714286 11.3851996527778  1.07421875 10.8860677083333  C 0.795200892857143 10.3869357638889  0.546409970238095 9.78298611111111  0.327845982142857 9.07421875  C 0.109281994047619 8.36545138888889  0 7.67664930555555  0 7.0078125  C 0 4.81163194444444  0.590587797619048 3.09461805555555  1.77176339285714 1.85677083333333  C 2.95293898809524 0.618923611111111  4.58519345238095 0  6.66852678571429 0  C 7.24516369047619 0  7.83342633928571 0.107313368055554  8.43331473214286 0.321940104166668  C 9.033203125 0.536566840277776  9.59123883928571 0.826063368055554  10.107421875 1.1904296875  C 10.6236049107143 1.55479600694444  11.0677083333333 1.89670138888889  11.4397321428571 2.21614583333333  C 11.811755952381 2.53559027777778  12.1651785714286 2.875  12.5 3.234375  C 12.8348214285714 2.875  13.188244047619 2.53559027777778  13.5602678571429 2.21614583333333  C 13.9322916666667 1.89670138888889  14.3763950892857 1.55479600694444  14.892578125 1.1904296875  C 15.4087611607143 0.826063368055554  15.966796875 0.536566840277776  16.5666852678571 0.321940104166668  C 17.1665736607143 0.107313368055554  17.7548363095238 0  18.3314732142857 0  C 20.4148065476191 0  22.0470610119048 0.618923611111111  23.2282366071429 1.85677083333333  C 24.409412202381 3.09461805555555  25 4.81163194444444  25 7.0078125  C 25 9.21397569444444  23.9350818452381 11.4600694444444  21.8052455357143 13.74609375  L 13.1138392857143 22.73046875  Z " stroke-width="2" stroke="#555555" fill="none" transform="matrix(1 0 0 1 44 544 )" mask="url(#clip104)" />
  </g>
</svg>