<?xml version="1.0" encoding="utf-8"?>
<svg version="1.1" xmlns:xlink="http://www.w3.org/1999/xlink" width="13px" height="13px" xmlns="http://www.w3.org/2000/svg">
  <g transform="matrix(1 0 0 1 -243 -35 )">
    <path d="M 249.5 35  C 253.14 35  256 37.86  256 41.5  C 256 45.14  253.14 48  249.5 48  C 245.86 48  243 45.14  243 41.5  C 243 37.86  245.86 35  249.5 35  Z " fill-rule="nonzero" fill="#303030" stroke="none" />
    <path d="M 249.5 35.5  C 252.86 35.5  255.5 38.14  255.5 41.5  C 255.5 44.86  252.86 47.5  249.5 47.5  C 246.14 47.5  243.5 44.86  243.5 41.5  C 243.5 38.14  246.14 35.5  249.5 35.5  Z " stroke-width="1" stroke="#7f7f7f" fill="none" />
  </g>
</svg>