<?xml version="1.0" encoding="utf-8"?>
<svg version="1.1" xmlns:xlink="http://www.w3.org/1999/xlink" width="20px" height="20px" xmlns="http://www.w3.org/2000/svg">
  <g transform="matrix(1 0 0 1 -42 -158 )">
    <path d="M 42 158  L 62 158  L 62 178  L 42 178  L 42 158  " fill-rule="nonzero" fill="#cccccc" stroke="none" />
    <path d="M 43 159  L 61 159  L 61 177  L 43 177  L 43 159  " fill-rule="nonzero" fill="#ffffff" stroke="none" />
    <path d="M 53.9 164  C 53.06 164  52.4 163.34  52.4 162.5  C 52.4 161.66  53.06 161  53.9 161  C 54.74 161  55.4 161.66  55.4 162.5  C 55.4 163.34  54.74 164  53.9 164  " fill-rule="nonzero" fill="#cccccc" stroke="none" />
    <path d="M 44 177  L 44 167.65  L 48.25 163.4  L 54.2 166.8  L 57.6 165.95  L 61 166.8  L 61 177  L 44 177  " fill-rule="nonzero" fill="#169bd5" stroke="none" />
  </g>
</svg>