<?xml version="1.0" encoding="utf-8"?>
<svg version="1.1" xmlns:xlink="http://www.w3.org/1999/xlink" width="3px" height="3px" xmlns="http://www.w3.org/2000/svg">
  <g transform="matrix(1 0 0 1 -421 -170 )">
    <path d="M 422.5 170  C 423.34 170  424 170.66  424 171.5  C 424 172.34  423.34 173  422.5 173  C 421.66 173  421 172.34  421 171.5  C 421 170.66  421.66 170  422.5 170  Z " fill-rule="nonzero" fill="#ffffff" stroke="none" />
    <path d="M 422.5 170.5  C 423.06 170.5  423.5 170.94  423.5 171.5  C 423.5 172.06  423.06 172.5  422.5 172.5  C 421.94 172.5  421.5 172.06  421.5 171.5  C 421.5 170.94  421.94 170.5  422.5 170.5  Z " stroke-width="1" stroke="#ffffff" fill="none" />
  </g>
</svg>