<?xml version="1.0" encoding="utf-8"?>
<svg version="1.1" xmlns:xlink="http://www.w3.org/1999/xlink" width="17px" height="17px" xmlns="http://www.w3.org/2000/svg">
  <g transform="matrix(1 0 0 1 -373 -169 )">
    <path d="M 381.5 169  C 386.26 169  390 172.74  390 177.5  C 390 182.26  386.26 186  381.5 186  C 376.74 186  373 182.26  373 177.5  C 373 172.74  376.74 169  381.5 169  Z " fill-rule="nonzero" fill="#ffffff" stroke="none" fill-opacity="0" />
    <path d="M 381.5 169.5  C 385.98 169.5  389.5 173.02  389.5 177.5  C 389.5 181.98  385.98 185.5  381.5 185.5  C 377.02 185.5  373.5 181.98  373.5 177.5  C 373.5 173.02  377.02 169.5  381.5 169.5  Z " stroke-width="1" stroke="#ffffff" fill="none" />
  </g>
</svg>