<?xml version="1.0" encoding="utf-8"?>
<svg version="1.1" xmlns:xlink="http://www.w3.org/1999/xlink" width="17px" height="17px" xmlns="http://www.w3.org/2000/svg">
  <g transform="matrix(1 0 0 1 -885 -250 )">
    <path d="M 893.5 250  C 898.26 250  902 253.74  902 258.5  C 902 263.26  898.26 267  893.5 267  C 888.74 267  885 263.26  885 258.5  C 885 253.74  888.74 250  893.5 250  Z " fill-rule="nonzero" fill="#ffffff" stroke="none" fill-opacity="0" />
    <path d="M 893.5 250.5  C 897.98 250.5  901.5 254.02  901.5 258.5  C 901.5 262.98  897.98 266.5  893.5 266.5  C 889.02 266.5  885.5 262.98  885.5 258.5  C 885.5 254.02  889.02 250.5  893.5 250.5  Z " stroke-width="1" stroke="#ffffff" fill="none" />
  </g>
</svg>