<?xml version="1.0" encoding="utf-8"?>
<svg version="1.1" xmlns:xlink="http://www.w3.org/1999/xlink" width="6px" height="6px" xmlns="http://www.w3.org/2000/svg">
  <g transform="matrix(1 0 0 1 -46 -18 )">
    <path d="M 49 18  C 50.68 18  52 19.32  52 21  C 52 22.68  50.68 24  49 24  C 47.32 24  46 22.68  46 21  C 46 19.32  47.32 18  49 18  Z " fill-rule="nonzero" fill="#d9001b" stroke="none" />
    <path d="M 49 18.5  C 50.4 18.5  51.5 19.6  51.5 21  C 51.5 22.4  50.4 23.5  49 23.5  C 47.6 23.5  46.5 22.4  46.5 21  C 46.5 19.6  47.6 18.5  49 18.5  Z " stroke-width="1" stroke="#d9001b" fill="none" />
  </g>
</svg>