<?xml version="1.0" encoding="utf-8"?>
<svg version="1.1" xmlns:xlink="http://www.w3.org/1999/xlink" width="43px" height="43px" xmlns="http://www.w3.org/2000/svg">
  <defs>
    <mask fill="white" id="clip19">
      <path d="M 60.5 206  C 48.5675 206  39 196.4325  39 184.5  L 39 184.5  C 39 172.5675  48.5675 163  60.5 163  L 60.5 163  C 72.4325 163  82 172.5675  82 184.5  L 82 184.5  C 82 196.4325  72.4325 206  60.5 206  " fill-rule="evenodd" />
    </mask>
  </defs>
  <g transform="matrix(1 0 0 1 -39 -163 )">
    <path d="M 39 163  L 82 163  L 82 206  L 39 206  L 39 163  " fill-rule="nonzero" fill="#cccccc" stroke="none" mask="url(#clip19)" />
    <path d="M 42 166  L 79 166  L 79 203  L 42 203  L 42 166  " fill-rule="nonzero" fill="#ffffff" stroke="none" mask="url(#clip19)" />
    <path d="M 64.585 175.9  C 62.779 175.9  61.36 174.481  61.36 172.675  C 61.36 170.869  62.779 169.45  64.585 169.45  C 66.391 169.45  67.81 170.869  67.81 172.675  C 67.81 174.481  66.391 175.9  64.585 175.9  " fill-rule="nonzero" fill="#cccccc" stroke="none" mask="url(#clip19)" />
    <path d="M 43 202  L 43 182.75  L 51.75 174  L 64 181  L 71 179.25  L 78 181  L 78 202  L 43 202  " fill-rule="nonzero" fill="#169bd5" stroke="none" mask="url(#clip19)" />
  </g>
</svg>